<svg xmlns="http://www.w3.org/2000/svg" viewBox="0 0 520 760">
<circle cx="260" cy="410" r="96" fill="#f3f1e6" stroke="#2c2c22" stroke-width="0.8" />
<circle cx="260" cy="410" r="96" fill="none" stroke="#c9c6ba" stroke-width="4" />
<text x="260" y="318" text-anchor="middle" dominant-baseline="middle" font-size="6" fill="#2c2c22" font-family="Arial, sans-serif">AIR TEMPERATURE °C</text>
<line x1="183.971" y1="379.282" x2="189.534" y2="381.53" stroke="#2c2c22" stroke-width="0.7" />
<text x="177.481" y="376.66" text-anchor="middle" dominant-baseline="middle" font-size="5" fill="#2c2c22" font-family="Arial, sans-serif">-40</text>
<line x1="188.67" y1="369.552" x2="191.715" y2="371.279" stroke="#2c2c22" stroke-width="0.4" />
<line x1="194.608" y1="360.524" x2="199.393" y2="364.144" stroke="#2c2c22" stroke-width="0.7" />
<line x1="201.681" y1="352.356" x2="204.17" y2="354.816" stroke="#2c2c22" stroke-width="0.4" />
<line x1="209.767" y1="345.188" x2="213.442" y2="349.93" stroke="#2c2c22" stroke-width="0.7" />
<text x="205.479" y="339.655" text-anchor="middle" dominant-baseline="middle" font-size="5" fill="#2c2c22" font-family="Arial, sans-serif">-20</text>
<line x1="218.725" y1="339.145" x2="220.487" y2="342.17" stroke="#2c2c22" stroke-width="0.4" />
<line x1="228.4" y1="334.333" x2="230.712" y2="339.87" stroke="#2c2c22" stroke-width="0.7" />
<line x1="238.623" y1="330.835" x2="239.536" y2="334.214" stroke="#2c2c22" stroke-width="0.4" />
<line x1="249.218" y1="328.712" x2="250.007" y2="334.66" stroke="#2c2c22" stroke-width="0.7" />
<text x="248.298" y="321.773" text-anchor="middle" dominant-baseline="middle" font-size="5" fill="#2c2c22" font-family="Arial, sans-serif">0</text>
<line x1="260" y1="328" x2="260" y2="331.5" stroke="#2c2c22" stroke-width="0.4" />
<line x1="270.782" y1="328.712" x2="269.993" y2="334.66" stroke="#2c2c22" stroke-width="0.7" />
<line x1="281.377" y1="330.835" x2="280.464" y2="334.214" stroke="#2c2c22" stroke-width="0.4" />
<line x1="291.6" y1="334.333" x2="289.288" y2="339.87" stroke="#2c2c22" stroke-width="0.7" />
<text x="294.298" y="327.874" text-anchor="middle" dominant-baseline="middle" font-size="5" fill="#2c2c22" font-family="Arial, sans-serif">20</text>
<line x1="301.275" y1="339.145" x2="299.513" y2="342.17" stroke="#2c2c22" stroke-width="0.4" />
<line x1="310.233" y1="345.188" x2="306.558" y2="349.93" stroke="#2c2c22" stroke-width="0.7" />
<line x1="318.319" y1="352.356" x2="315.83" y2="354.816" stroke="#2c2c22" stroke-width="0.4" />
<line x1="325.392" y1="360.524" x2="320.607" y2="364.144" stroke="#2c2c22" stroke-width="0.7" />
<text x="330.975" y="356.301" text-anchor="middle" dominant-baseline="middle" font-size="5" fill="#2c2c22" font-family="Arial, sans-serif">40</text>
<line x1="331.33" y1="369.552" x2="328.285" y2="371.279" stroke="#2c2c22" stroke-width="0.4" />
<line x1="336.029" y1="379.282" x2="330.466" y2="381.53" stroke="#2c2c22" stroke-width="0.7" />
<text x="260" y="360" text-anchor="middle" dominant-baseline="middle" font-size="6" fill="#2c2c22" font-family="Arial, sans-serif">PRESSURE ALTITUDE</text>
<text x="260" y="368" text-anchor="middle" dominant-baseline="middle" font-size="5" fill="#6a6a5e" font-family="Arial, sans-serif">THOUSANDS OF FEET</text>
<line x1="210" y1="376" x2="210" y2="384" stroke="#2c2c22" stroke-width="0.7" />
<text x="210" y="372" text-anchor="middle" dominant-baseline="middle" font-size="5" fill="#2c2c22" font-family="Arial, sans-serif">0</text>
<line x1="220" y1="376" x2="220" y2="381" stroke="#2c2c22" stroke-width="0.4" />
<line x1="230" y1="376" x2="230" y2="381" stroke="#2c2c22" stroke-width="0.4" />
<line x1="240" y1="376" x2="240" y2="381" stroke="#2c2c22" stroke-width="0.4" />
<line x1="250" y1="376" x2="250" y2="381" stroke="#2c2c22" stroke-width="0.4" />
<line x1="260" y1="376" x2="260" y2="384" stroke="#2c2c22" stroke-width="0.7" />
<text x="260" y="372" text-anchor="middle" dominant-baseline="middle" font-size="5" fill="#2c2c22" font-family="Arial, sans-serif">10</text>
<line x1="270" y1="376" x2="270" y2="381" stroke="#2c2c22" stroke-width="0.4" />
<line x1="280" y1="376" x2="280" y2="381" stroke="#2c2c22" stroke-width="0.4" />
<line x1="290" y1="376" x2="290" y2="381" stroke="#2c2c22" stroke-width="0.4" />
<line x1="300" y1="376" x2="300" y2="381" stroke="#2c2c22" stroke-width="0.4" />
<line x1="310" y1="376" x2="310" y2="384" stroke="#2c2c22" stroke-width="0.7" />
<text x="310" y="372" text-anchor="middle" dominant-baseline="middle" font-size="5" fill="#2c2c22" font-family="Arial, sans-serif">20</text>
<text x="260" y="404" text-anchor="middle" dominant-baseline="middle" font-size="8" fill="#2c2c22" font-family="Arial, sans-serif">DENSITY ALTITUDE</text>
<text x="208" y="426" text-anchor="start" dominant-baseline="middle" font-size="4.5" fill="#2c2c22" font-family="Arial, sans-serif">ALTITUDE: set air temp</text>
<text x="208" y="433" text-anchor="start" dominant-baseline="middle" font-size="4.5" fill="#6a6a5e" font-family="Arial, sans-serif">over pressure altitude</text>
<text x="312" y="426" text-anchor="end" dominant-baseline="middle" font-size="4.5" fill="#2c2c22" font-family="Arial, sans-serif">TAS: read over the</text>
<text x="312" y="433" text-anchor="end" dominant-baseline="middle" font-size="4.5" fill="#6a6a5e" font-family="Arial, sans-serif">calibrated A.S. scale</text>
<text x="260" y="454" text-anchor="middle" dominant-baseline="middle" font-size="4.5" fill="#6a6a5e" font-family="Arial, sans-serif">FUEL · TIME · DISTANCE on the outer scales</text>
</svg>
